<svg xmlns="http://www.w3.org/2000/svg" version="1.1" xmlns:xlink="http://www.w3.org/1999/xlink" xmlns:svgjs="http://svgjs.com/svgjs" width="512" height="512" x="0" y="0" viewBox="0 0 48 48" style="enable-background:new 0 0 512 512" xml:space="preserve" class=""><g><path fill="#ffd766" d="M21.977 3.1A20.97 20.97 0 0 0 5.6 34.076a1.021 1.021 0 0 1 .1.788l-2.125 7.071a2 2 0 0 0 2.49 2.49l7.072-2.125a1.025 1.025 0 0 1 .787.1A20.825 20.825 0 0 0 24 45a20.981 20.981 0 0 0 20.9-18.979A21.008 21.008 0 0 0 21.977 3.1z" data-original="#ffd766" class=""></path><g fill="#fff"><circle cx="24" cy="17" r="3" fill="#ffffff" data-original="#ffffff" class=""></circle><path d="M22 22h4v13h-4z" fill="#ffffff" data-original="#ffffff" class=""></path><rect width="10" height="3" x="19" y="32" rx="1.5" fill="#ffffff" data-original="#ffffff" class=""></rect><rect width="8" height="3" x="20" y="22" rx="1.5" fill="#ffffff" data-original="#ffffff" class=""></rect></g></g></svg>