<svg xmlns="http://www.w3.org/2000/svg" version="1.1" xmlns:xlink="http://www.w3.org/1999/xlink" xmlns:svgjs="http://svgjs.com/svgjs" width="512" height="512" x="0" y="0" viewBox="0 0 400 400" style="enable-background:new 0 0 512 512" xml:space="preserve" class=""><g><path fill="#f3b44f" d="M166.664 358.948c-.369 0-.741-.021-1.116-.063-5.479-.609-9.431-5.537-8.838-11.014.497-4.836-.243-13.455-3.41-16.611-.487-.486-1.787-1.779-5.901-1.338-5.052.537-11.421 1.941-18.164 3.43-11.753 2.592-25.073 5.533-37.084 5.117-16.203-.555-27.356-7.129-33.149-19.539-8.634-18.496 1.06-35.137 15.1-42.016 14.396-7.053 34.042-4.311 43.741 14.574 2.523 4.914.585 10.941-4.327 13.465-4.912 2.523-10.94.586-13.464-4.328-4.288-8.346-11.917-8.318-17.15-5.752-1.774.869-10.393 5.707-5.777 15.596 5.447 11.668 24.05 8.59 47.805 3.352 7.301-1.609 14.197-3.131 20.354-3.785 11.29-1.209 18.31 3.213 22.208 7.129 11.152 11.205 9.344 30.699 9.102 32.887a10.008 10.008 0 0 1-9.93 8.896z" data-original="#8e9597" class=""></path><path fill="#ffc34a" d="M154.269 246.651s-34.694 97.674-10.362 114.588c24.334 16.914 48.772-16.227 74.091-3.359 25.316 12.865 56.113 13.471 57.23-12.605 1.119-26.078-20.859-92.484-39.518-94.975s-81.441-3.649-81.441-3.649z" data-original="#acb9b6" class=""></path><path fill="#f3b44f" d="M139.933 58.45S48.921 27.794 38.863 40.727C28.803 53.659 47.006 164.79 69.04 168.622c22.034 3.83 77.599-75.205 70.893-110.172z" data-original="#8e9597" class=""></path><path fill="#ffcfd3" d="M122.815 80.067C106.026 72.38 71.489 57.776 65.878 64.95c-5.852 7.486 1.195 59.547 12.395 83.008 15.785-3.189 40.276-40.385 44.542-67.891z" data-original="#ffcfd3" class=""></path><path fill="#f3b44f" d="M272.959 58.45s91.011-30.656 101.07-17.723c10.059 12.932-8.145 124.063-30.178 127.895-22.033 3.83-77.598-75.205-70.892-110.172z" data-original="#8e9597" class=""></path><path fill="#ffcfd3" d="M290.075 80.067c16.789-7.688 51.327-22.291 56.938-15.117 5.853 7.486-1.195 59.547-12.395 83.008-15.786-3.189-40.276-40.385-44.543-67.891z" data-original="#ffcfd3" class=""></path><path fill="#fff7e3" d="M354.528 178.69c0 77.908-67.126 102.109-149.93 102.109-82.803 0-149.93-24.201-149.93-102.109 0-77.91 67.127-154.954 149.93-154.954 82.804 0 149.93 77.044 149.93 154.954z" data-original="#c2c9c9" class=""></path><path fill="#f3b44f" d="M55.023 168.989c7.329 4.775 126.075 80.521 121.594-28.604-1.994-48.557-10.45-83.709-19.423-108-56.475 21.069-98.007 77.675-102.171 136.604zM354.528 168.989c-7.329 4.775-126.075 80.521-121.594-28.604 1.993-48.557 10.45-83.709 19.423-108 56.476 21.069 98.008 77.675 102.171 136.604z" data-original="#8e9597" class=""></path><ellipse cx="108.415" cy="178.767" fill="#ffcfd3" rx="21.768" ry="13.748" data-original="#ffcfd3" class=""></ellipse><ellipse cx="300.18" cy="180.118" fill="#ffcfd3" rx="21.768" ry="13.748" data-original="#ffcfd3" class=""></ellipse><ellipse cx="204.599" cy="173.337" fill="#ffcfd3" rx="9.101" ry="5.75" data-original="#ffcfd3" class=""></ellipse><path d="M163.313 157.671a4.988 4.988 0 0 1-4.016-2.016c-6.982-9.389-13.891-13.98-20.596-13.664-10.622.514-18.352 13.125-18.429 13.252-1.423 2.359-4.492 3.129-6.856 1.711s-3.137-4.477-1.726-6.844c.421-.705 10.49-17.291 26.467-18.104 10.229-.545 20.052 5.426 29.165 17.682a4.997 4.997 0 0 1-1.028 6.994 4.966 4.966 0 0 1-2.981.989zM293.217 157.671a4.988 4.988 0 0 1-4.016-2.016c-6.982-9.389-13.895-13.98-20.597-13.664-10.622.514-18.353 13.125-18.429 13.252a5.007 5.007 0 0 1-6.857 1.711 4.996 4.996 0 0 1-1.725-6.844c.42-.705 10.49-17.291 26.467-18.104 10.221-.545 20.052 5.426 29.164 17.682a4.998 4.998 0 0 1-1.027 6.994 4.963 4.963 0 0 1-2.98.989zM190.324 194.235c-.345 0-.693-.01-1.047-.027-5.194-.279-10.162-4.213-11.073-8.768-.744-3.717 1.235-7.104 5.294-9.057a3 3 0 1 1 2.602 5.406c-2.288 1.102-2.082 2.135-2.014 2.475.342 1.709 2.824 3.807 5.512 3.951 5.177.287 8.878-2.391 13.526-7.094a3 3 0 0 1 4.267 4.219c-4.274 4.327-9.452 8.895-17.067 8.895z" fill="#000000" data-original="#000000" class=""></path><path d="M220.195 194.235c-7.615 0-12.793-4.568-17.069-8.895a3 3 0 0 1 4.267-4.219c4.649 4.703 8.354 7.379 13.526 7.094 2.688-.145 5.17-2.242 5.512-3.951.068-.34.275-1.373-2.014-2.475a3 3 0 0 1 2.604-5.406c4.059 1.953 6.037 5.34 5.294 9.057-.911 4.555-5.879 8.488-11.073 8.768-.353.018-.703.027-1.047.027z" fill="#000000" data-original="#000000" class=""></path><g fill="#ff8d88"><path d="M44.499 255.472c-7.66-10.662-22.857-7.551-21.885 6.219.973 13.771 21.885 23.842 21.885 23.842s20.911-10.07 21.884-23.842c.972-13.77-14.225-16.881-21.884-6.219zM21.294 147.198c-8.638-6.363-19.673-.123-15.454 10.338 4.22 10.465 23.014 13.035 23.014 13.035s13.729-13.09 11.021-24.041c-2.707-10.953-15.306-9.549-18.581.668zM382.395 172.249c-2.844-8.797-13.705-9.979-16.014-.535-2.309 9.445 9.551 20.695 9.551 20.695s16.189-2.258 19.803-11.285c3.613-9.025-5.911-14.379-13.34-8.875zM315.678 289.14c-5.732-16.119-25.885-17.725-29.648-.131-3.764 17.592 18.775 37.766 18.775 37.766s29.824-5.043 36.023-21.934c6.199-16.889-11.703-26.279-25.15-15.701z" fill="#ff8d88" data-original="#ff8d88" class=""></path></g><path fill="#f5eaff" d="M240.792 327.187c0 5.459-4.666 9.883-10.422 9.883h-58.521c-5.756 0-10.422-4.424-10.422-9.883v-118.29c0-5.459 4.667-9.883 10.422-9.883h58.521c5.756 0 10.422 4.424 10.422 9.883z" data-original="#f7efef" class=""></path><ellipse cx="155.182" cy="275.845" fill="#f3b44f" rx="29.446" ry="25.24" transform="rotate(-19.61 155.108 275.563)" data-original="#8e9597" class=""></ellipse><ellipse cx="251.944" cy="275.845" fill="#f3b44f" rx="29.446" ry="25.24" transform="rotate(-160.39 251.976 275.795)" data-original="#8e9597" class=""></ellipse><path fill="#ffffff" d="M163.31 240.815c.003.002-7.723-11.674-16.896-15.213v-12.361c0-6.262-5.077-11.338-11.338-11.338H102.37c-6.262 0-11.338 5.076-11.338 11.338v30.275c0 6.264 5.077 11.34 11.338 11.34h32.706c6.262 0 11.338-5.076 11.338-11.34v-8.742c4.918.454 11.311 1.922 16.896 6.041z" data-original="#ffffff" class=""></path><path fill="#ff8d88" d="M116.576 220.837c-8.638-6.363-19.673-.123-15.454 10.34 4.22 10.465 23.014 13.035 23.014 13.035s13.729-13.09 11.021-24.043c-2.707-10.951-15.305-9.547-18.581.668z" data-original="#ff8d88" class=""></path></g></svg>