<svg xmlns="http://www.w3.org/2000/svg" version="1.1" xmlns:xlink="http://www.w3.org/1999/xlink" xmlns:svgjs="http://svgjs.com/svgjs" width="512" height="512" x="0" y="0" viewBox="0 0 58 58" style="enable-background:new 0 0 512 512" xml:space="preserve" class=""><g><g fill="none" fill-rule="nonzero" transform="translate(0 -1)"><path fill="#9fc9d3" d="M35.17 35A3 3 0 0 1 38 31a3 3 0 0 1 4.37-2.67A4 4 0 0 1 50 30c-.002.34-.046.68-.13 1.01A.57.57 0 0 1 50 31a3 3 0 0 1 2.83 4L44 37z" data-original="#9fc9d3" class=""></path><path fill="#c03a2b" d="m51 55-7 2-7-2-3-16 10-2 10 2z" data-original="#c03a2b"></path><rect width="58" height="4" y="55" fill="#ff5364" rx="2" data-original="#ff5364"></rect><path fill="#a56a43" d="M28 54v1H12a9 9 0 0 1 0-18 9.225 9.225 0 0 1 2.24.28c.003.015.01.029.02.04.086.163.197.312.33.44l5.65 5.65c.137.146.3.264.48.35.185.732.279 1.485.28 2.24 0 .334-.02.668-.06 1-.03.338-.09.673-.18 1a5.7 5.7 0 0 1-.28 1H23a5 5 0 0 1 5 5z" data-original="#a56a43" class=""></path><path fill="#bdc3c7" d="M23.07 43.41c-.373.376-.88.589-1.41.59a1.933 1.933 0 0 1-.94-.24 1.6 1.6 0 0 1-.48-.35l-5.65-5.65a1.749 1.749 0 0 1-.33-.44.076.076 0 0 1-.02-.04 1.993 1.993 0 0 1 3.17-2.35l1.42 1.42 4.24 4.24a1.992 1.992 0 0 1 0 2.82z" data-original="#bdc3c7"></path><path fill="#f29c1f" d="M56.41 1.581a2 2 0 0 1 0 2.828L21.657 39.162l-2.828-2.828L53.582 1.58a2 2 0 0 1 2.828 0z" data-original="#f29c1f" class=""></path><rect width="24" height="4" x="32" y="35" fill="#e64c3c" rx="2" data-original="#e64c3c"></rect><path fill="#ffffff" d="M41 44h-2a1 1 0 0 1 0-2h2a1 1 0 0 1 0 2zM48 44h-3a1 1 0 0 1 0-2h3a1 1 0 0 1 0 2z" data-original="#ffffff"></path><circle cx="55" cy="25" r="2" fill="#9fc9d3" data-original="#9fc9d3" class=""></circle><circle cx="50" cy="19" r="2" fill="#9fc9d3" data-original="#9fc9d3" class=""></circle><g fill="#955ba5"><path d="M12 10a1 1 0 0 1-.707-.293l-1.5-1.5a1 1 0 1 1 1.414-1.414l1.5 1.5A1 1 0 0 1 12 10zM7.5 5.5a1 1 0 0 1-.707-.293l-1.5-1.5a1 1 0 0 1 1.414-1.414l1.5 1.5A1 1 0 0 1 7.5 5.5zM6 10a1 1 0 0 1-.707-1.707l1.5-1.5a1 1 0 0 1 1.414 1.414l-1.5 1.5A1 1 0 0 1 6 10zM10.5 5.5a1 1 0 0 1-.707-1.707l1.5-1.5a1 1 0 1 1 1.414 1.414l-1.5 1.5a1 1 0 0 1-.707.293z" fill="#955ba5" data-original="#955ba5" class=""></path></g><path fill="#f3d55b" d="M10.639 23.492a8.457 8.457 0 0 0-4.154 4.165.526.526 0 0 1-.986 0 8.457 8.457 0 0 0-4.154-4.165.523.523 0 0 1 0-.984A8.37 8.37 0 0 0 5.5 18.343a.526.526 0 0 1 .986 0 8.37 8.37 0 0 0 4.154 4.165.523.523 0 0 1-.001.984zM32.515 11.691a11.877 11.877 0 0 0-5.832 5.847.737.737 0 0 1-1.382 0 11.877 11.877 0 0 0-5.832-5.847.735.735 0 0 1 0-1.382A11.749 11.749 0 0 0 25.3 4.462a.737.737 0 0 1 1.382 0 11.749 11.749 0 0 0 5.832 5.847.735.735 0 0 1 .001 1.382z" data-original="#f3d55b"></path><path fill="#805333" d="M20.94 47c-.03.338-.09.673-.18 1a5.7 5.7 0 0 1-.28 1H17a1 1 0 0 1 0-2z" data-original="#805333"></path></g></g></svg>