<svg xmlns="http://www.w3.org/2000/svg" version="1.1" xmlns:xlink="http://www.w3.org/1999/xlink" xmlns:svgjs="http://svgjs.com/svgjs" width="512" height="512" x="0" y="0" viewBox="0 0 100 100" style="enable-background:new 0 0 512 512" xml:space="preserve" class=""><g><path fill="#8cc63f" d="M30.15 95a.84.84 0 0 1-.71-1c1-6.7 9.51-52.18 47.84-84.08l.67.8c-38 31.65-45.87 76.86-46.84 83.53a.84.84 0 0 1-.96.75z" data-original="#8cc63f"></path><path fill="#8cc63f" d="M31.67 85.05a67.58 67.58 0 0 0-11.48-25l.82-.65c.09.11 8.72 11.16 11.69 25.39zM35 76.74l-.91-.51C44.05 58.31 68.75 57 69 57v1c-.2.06-24.32 1.33-34 18.74zM41.79 58.83l-1-.12c2.44-21.83-2.28-32.23-2.33-32.33l.94-.44c.17.42 4.87 10.72 2.39 32.89zM52.46 39.36l-.61-.85c11-7.86 29.7-11.95 29.88-12l.22 1c-.18.07-18.69 4.12-29.49 11.85zM57 32.9l-1-.28c3.15-11.66-2.2-21.92-2.25-22l.92-.49c.03.08 5.56 10.71 2.33 22.77z" data-original="#8cc63f"></path><path fill="#8cc63f" d="m29.61 76.44-1-1.43c-3.5-4.86-10.21-8.93-10.83-9.13l.12-.34v-.7c.62 0 6.69 3.71 10.53 8.25l-.6-13.3h1zM48.53 63.78l-.93-.49c2.1-3.89 8.63-8.84 8.91-9l.63.84c-.07 0-6.62 4.97-8.61 8.65zM63.69 64c-.06 0-6.09-3-10.92-2.13l-.18-1c5.17-.92 11.3 2.1 11.56 2.23zM41.3 41.36c-.16-5.26 2.31-11.75 2.42-12l1 .38c0 .06-2.49 6.57-2.34 11.62zM41.46 46.5c-.51-5.32-7.18-10.6-7.25-10.65l.65-.83c.29.23 7.09 5.62 7.64 11.38zM56.82 21.88a10.52 10.52 0 0 0-6.6-7.17l.32-1a11.39 11.39 0 0 1 7.3 7.93zM58 25.46l-.78-.71c1.41-1.53 2.14-6.46 2.3-8.22l1.05.09c-.07.28-.68 6.74-2.57 8.84zM65 23.15l-.78-.71c2.1-2.28 4.24-9.55 4.26-9.62l1 .29c-.04.31-2.19 7.58-4.48 10.04zM63.16 25.16l-.34-1c.14-.05 14.3-4.85 17.54-8l.73.75c-3.41 3.32-17.34 8.09-17.93 8.25zM69.19 31.26l-.34-1a36.37 36.37 0 0 0 4.3-3c1.8-1.36 3.85-2.91 5.54-4l.58.88c-1.67 1.09-3.7 2.62-5.49 4a28.61 28.61 0 0 1-4.59 3.12zM77.79 35.85c-3.67-2.78-13.43-2.74-13.53-2.74v-1c.41 0 10.22 0 14.18 3z" data-original="#8cc63f"></path><g fill="#e6e6e6"><ellipse cx="19.57" cy="57.81" rx="2.37" ry="3.14" transform="rotate(-30 19.568 57.804)" fill="#e6e6e6" data-original="#e6e6e6"></ellipse><ellipse cx="27.78" cy="57.03" rx="2.37" ry="3.14" transform="rotate(-11 27.846 57.133)" fill="#e6e6e6" data-original="#e6e6e6"></ellipse><ellipse cx="16.35" cy="64.16" rx="2.37" ry="3.14" transform="rotate(-60 16.35 64.163)" fill="#e6e6e6" data-original="#e6e6e6"></ellipse><ellipse cx="58.84" cy="53.54" rx="3.24" ry="2.36" transform="rotate(-33.24 58.848 53.554)" fill="#e6e6e6" data-original="#e6e6e6"></ellipse><ellipse cx="71.49" cy="57.32" rx="3.24" ry="2.36" transform="rotate(-3.62 72.168 57.378)" fill="#e6e6e6" data-original="#e6e6e6"></ellipse><ellipse cx="66.26" cy="64.57" rx="2.36" ry="3.24" transform="rotate(-75 66.004 64.302)" fill="#e6e6e6" data-original="#e6e6e6"></ellipse><ellipse cx="31.53" cy="34.44" rx="2.36" ry="3.24" transform="rotate(-75 31.517 34.315)" fill="#e6e6e6" data-original="#e6e6e6"></ellipse><ellipse cx="36.87" cy="24.66" rx="2.36" ry="3.24" transform="rotate(-49.1 36.846 24.66)" fill="#e6e6e6" data-original="#e6e6e6"></ellipse><ellipse cx="45.91" cy="27.03" rx="3.24" ry="2.36" transform="rotate(-60 45.918 27.03)" fill="#e6e6e6" data-original="#e6e6e6"></ellipse><ellipse cx="47.72" cy="12.97" rx="2.36" ry="3.24" transform="rotate(-62.56 47.701 12.958)" fill="#e6e6e6" data-original="#e6e6e6"></ellipse><ellipse cx="52.56" cy="8.01" rx="2.36" ry="3.24" transform="rotate(-35.12 52.592 8.02)" fill="#e6e6e6" data-original="#e6e6e6"></ellipse><ellipse cx="60" cy="13.57" rx="2.36" ry="3.24" transform="rotate(-8.4 60.098 13.59)" fill="#e6e6e6" data-original="#e6e6e6"></ellipse><ellipse cx="69.02" cy="10.35" rx="2.36" ry="3.24" transform="rotate(-4.25 68.674 10.248)" fill="#e6e6e6" data-original="#e6e6e6"></ellipse><ellipse cx="79.14" cy="9.19" rx="3.24" ry="2.36" transform="rotate(-38.95 79.104 9.186)" fill="#e6e6e6" data-original="#e6e6e6"></ellipse><ellipse cx="82.07" cy="14.53" rx="3.24" ry="2.36" transform="rotate(-60 82.076 14.524)" fill="#e6e6e6" data-original="#e6e6e6"></ellipse><ellipse cx="81.54" cy="22.44" rx="3.24" ry="2.36" transform="rotate(-25.58 81.537 22.409)" fill="#e6e6e6" data-original="#e6e6e6"></ellipse><ellipse cx="84.71" cy="27.03" rx="3.24" ry="2.36" transform="rotate(-2.06 85.345 27.093)" fill="#e6e6e6" data-original="#e6e6e6"></ellipse><ellipse cx="80.12" cy="36.84" rx="2.36" ry="3.24" transform="rotate(-60 80.127 36.84)" fill="#e6e6e6" data-original="#e6e6e6"></ellipse></g></g></svg>