<svg xmlns="http://www.w3.org/2000/svg" version="1.1" xmlns:xlink="http://www.w3.org/1999/xlink" xmlns:svgjs="http://svgjs.com/svgjs" width="512" height="512" x="0" y="0" viewBox="0 0 32 32" style="enable-background:new 0 0 512 512" xml:space="preserve" class=""><g><path fill="#ffd9d9" d="M7.353 5.204A9.197 9.197 0 0 0 2 4.468c.918.855 1.28 2.146 1.469 3.385.189 1.24.251 2.521.732 3.679s1.517 2.2 2.771 2.227l4.381-4.922a9.195 9.195 0 0 0-4-3.633z" data-original="#ffd9d9"></path><path fill="#ffc5c5" d="m9.9 10.469-2.928 3.29c-1.254-.027-2.289-1.069-2.771-2.227-.481-1.158-.543-2.439-.732-3.679S2.918 5.323 2 4.468c0 0 6.487 1.37 7.9 6.001z" data-original="#ffc5c5"></path><path fill="#ffbdbd" d="m9.9 10.469-2.928 3.29-.067-.002c.259-1.263.556-3.755-.758-5.68-1.066-1.561-3.471-3.16-4.146-3.609L2 4.467c0 .001 6.486 1.371 7.9 6.002z" data-original="#ffbdbd"></path><path fill="#ffd9d9" d="M24.647 5.204A9.197 9.197 0 0 1 30 4.468c-.918.855-1.28 2.146-1.469 3.385-.189 1.24-.251 2.521-.732 3.679s-1.517 2.2-2.771 2.227l-4.381-4.922a9.195 9.195 0 0 1 4-3.633z" data-original="#ffd9d9"></path><path fill="#ffc5c5" d="m22.1 10.469 2.928 3.29c1.254-.027 2.289-1.069 2.771-2.227.481-1.158.543-2.439.733-3.679.188-1.24.55-2.53 1.468-3.385 0 0-6.487 1.37-7.9 6.001z" data-original="#ffc5c5"></path><path fill="#ffbdbd" d="m22.1 10.469 2.928 3.29.067-.002c-.259-1.263-.556-3.755.758-5.68 1.066-1.561 3.471-3.16 4.146-3.609L30 4.467c0 .001-6.486 1.371-7.9 6.002z" data-original="#ffbdbd"></path><path fill="#ffcdcc" d="M16 27.652c7.427.006 14.855-4.222 12.159-12.703-1.871-5.887-7.013-8.9-12.159-8.923-5.146.023-10.288 3.036-12.159 8.924C1.145 23.43 8.573 27.659 16 27.652z" data-original="#ffcdcc" class=""></path><path fill="#ffc5c5" d="M16 27.652c-7.428.007-14.855-4.222-12.159-12.703a.771.771 0 0 1 .009-.026c-.638 6.556 5.756 9.825 12.15 9.82 6.394.006 12.788-3.264 12.151-9.82l.009.026c2.695 8.481-4.732 12.71-12.16 12.703z" data-original="#ffc5c5"></path><path fill="#fca2b1" d="M14.264 15.049a3.1 3.1 0 0 1 3.472 0c1.694 1.138 2.377 2.883 1.985 3.942-.377 1.019-1.848 1.668-3.533 1.613a5.892 5.892 0 0 0-.376 0c-1.684.055-3.155-.594-3.533-1.613-.391-1.059.292-2.804 1.985-3.942z" data-original="#fca2b1"></path><ellipse cx="14.672" cy="18.049" fill="#fc839d" rx=".751" ry="1.113" data-original="#fc839d"></ellipse><ellipse cx="17.328" cy="18.049" fill="#fc839d" rx=".751" ry="1.113" data-original="#fc839d"></ellipse><path fill="#ff6c93" d="M15.423 18.049c0 .054-.002.108-.008.16-.052-.539-.365-.953-.743-.953s-.691.414-.743.953a1.664 1.664 0 0 1-.008-.16c0-.615.336-1.113.751-1.113s.751.498.751 1.113zM18.079 18.049c0 .054-.002.108-.008.16-.052-.539-.365-.953-.743-.953s-.691.414-.743.953a1.664 1.664 0 0 1-.008-.16c0-.615.336-1.113.751-1.113s.751.498.751 1.113z" data-original="#ff6c93"></path><path fill="#ffd9d9" d="M21.057 9.201c-.189.857-3.277 1.183-5.057 1.183s-4.868-.326-5.057-1.183c-.186-.845 2.451-2.186 5.057-2.186s5.243 1.341 5.057 2.186z" data-original="#ffd9d9"></path><ellipse cx="8.489" cy="19.146" fill="#ff9999" rx="1.651" ry=".787" data-original="#ff9999"></ellipse><ellipse cx="7.519" cy="18.977" fill="#ffa4a4" rx=".363" ry=".253" transform="rotate(-16.05 7.53 18.977)" data-original="#ffa4a4"></ellipse><ellipse cx="23.511" cy="19.146" fill="#ff9999" rx="1.651" ry=".787" data-original="#ff9999"></ellipse><ellipse cx="24.481" cy="18.977" fill="#ffa4a4" rx=".253" ry=".363" transform="rotate(-73.92 24.48 18.974)" data-original="#ffa4a4"></ellipse><path fill="#e96565" d="M9.844 16.208a.667.667 0 0 0 .497 0c1.179-.476 2.742-1.839 2.194-3.209-.392-.981-1.772-1.116-2.442-.352-.67-.764-2.051-.63-2.442.352-.549 1.37 1.014 2.733 2.193 3.209z" data-original="#e96565"></path><path fill="#e55c5c" d="M10.341 16.208a.667.667 0 0 1-.497 0c-1.179-.476-2.742-1.839-2.194-3.21l.025-.058c-.117 1.157 1.179 2.238 2.182 2.643.151.061.32.061.471 0 1.003-.405 2.299-1.486 2.182-2.643l.025.058c.547 1.371-1.015 2.734-2.194 3.21z" data-original="#e55c5c"></path><ellipse cx="8.72" cy="12.742" fill="#ea7575" rx=".526" ry=".296" transform="rotate(-11 8.73 12.752)" data-original="#ea7575"></ellipse><ellipse cx="11.001" cy="12.742" fill="#ea7575" rx=".526" ry=".296" transform="rotate(-11 11.012 12.752)" data-original="#ea7575"></ellipse><path fill="#e96565" d="M21.659 16.208a.667.667 0 0 0 .497 0c1.179-.476 2.742-1.839 2.194-3.209-.392-.981-1.772-1.116-2.442-.352-.67-.764-2.051-.63-2.442.352-.548 1.37 1.014 2.733 2.193 3.209z" data-original="#e96565"></path><path fill="#e55c5c" d="M22.156 16.208a.667.667 0 0 1-.497 0c-1.179-.476-2.742-1.839-2.194-3.21l.025-.058c-.117 1.157 1.179 2.238 2.182 2.643.151.061.32.061.471 0 1.003-.405 2.299-1.486 2.182-2.643l.025.058c.548 1.371-1.015 2.734-2.194 3.21z" data-original="#e55c5c"></path><ellipse cx="20.535" cy="12.742" fill="#ea7575" rx=".526" ry=".296" transform="rotate(-11 20.557 12.75)" data-original="#ea7575"></ellipse><ellipse cx="22.816" cy="12.742" fill="#ea7575" rx=".526" ry=".296" transform="rotate(-11 22.84 12.75)" data-original="#ea7575"></ellipse><path fill="#422112" d="M19.447 21.599c.261-.036.488.21.476.518-.096 2.542-2.01 3.813-3.924 3.813s-3.828-1.271-3.924-3.813c-.012-.308.215-.554.476-.518a25.458 25.458 0 0 0 6.896 0z" data-original="#422112"></path><path fill="#f8f4f1" d="M19.079 21.646v.506c0 .206-.11.39-.274.46-.645.278-1.613.585-2.805.585s-2.16-.307-2.805-.584c-.165-.071-.274-.255-.274-.46v-.506a25.465 25.465 0 0 0 6.158-.001z" data-original="#f8f4f1"></path><path fill="#eaeaea" d="M19.079 21.646v.289a11.82 11.82 0 0 1-6.158 0v-.289a25.465 25.465 0 0 0 6.158 0z" data-original="#eaeaea"></path><path fill="#fe6941" d="M18.708 24.919c-.737.674-1.723 1.011-2.708 1.011s-1.971-.337-2.708-1.011c.703-.477 1.657-.771 2.708-.771s2.005.293 2.708.771z" data-original="#fe6941"></path><path fill="#f95332" d="M18.708 24.919c-1.215 1.115-3.128 1.309-4.584.572a3.713 3.713 0 0 1-.833-.572c.091-.062.186-.121.285-.176.696.517 1.56.775 2.423.775s1.726-.259 2.423-.775c.1.055.195.114.286.176z" data-original="#f95332"></path></g></svg>