<svg xmlns="http://www.w3.org/2000/svg" version="1.1" xmlns:xlink="http://www.w3.org/1999/xlink" xmlns:svgjs="http://svgjs.com/svgjs" width="512" height="512" x="0" y="0" viewBox="0 0 32 32" style="enable-background:new 0 0 512 512" xml:space="preserve" class=""><g><path fill="#ffd9d9" d="M7.353 5.204A9.197 9.197 0 0 0 2 4.468c.918.855 1.28 2.146 1.469 3.385.189 1.24.251 2.521.732 3.679s1.517 2.2 2.771 2.227l4.381-4.922a9.195 9.195 0 0 0-4-3.633z" data-original="#ffd9d9"></path><path fill="#ffc5c5" d="m9.9 10.469-2.928 3.29c-1.254-.027-2.289-1.069-2.771-2.227-.481-1.158-.543-2.439-.732-3.679S2.918 5.323 2 4.468c0 0 6.487 1.37 7.9 6.001z" data-original="#ffc5c5"></path><path fill="#ffbdbd" d="m9.9 10.469-2.928 3.29-.067-.002c.259-1.263.556-3.755-.758-5.68-1.066-1.561-3.471-3.16-4.146-3.609L2 4.467c0 .001 6.486 1.371 7.9 6.002z" data-original="#ffbdbd"></path><path fill="#ffd9d9" d="M24.647 5.204A9.197 9.197 0 0 1 30 4.468c-.918.855-1.28 2.146-1.469 3.385-.189 1.24-.251 2.521-.732 3.679s-1.517 2.2-2.771 2.227l-4.381-4.922a9.195 9.195 0 0 1 4-3.633z" data-original="#ffd9d9"></path><path fill="#ffc5c5" d="m22.1 10.469 2.928 3.29c1.254-.027 2.289-1.069 2.771-2.227.481-1.158.543-2.439.733-3.679.188-1.24.55-2.53 1.468-3.385 0 0-6.487 1.37-7.9 6.001z" data-original="#ffc5c5"></path><path fill="#ffbdbd" d="m22.1 10.469 2.928 3.29.067-.002c-.259-1.263-.556-3.755.758-5.68 1.066-1.561 3.471-3.16 4.146-3.609L30 4.467c0 .001-6.486 1.371-7.9 6.002z" data-original="#ffbdbd"></path><path fill="#ffcdcc" d="M16 27.652c7.427.006 14.855-4.222 12.159-12.703-1.871-5.887-7.013-8.9-12.159-8.923-5.146.023-10.288 3.036-12.159 8.924C1.145 23.43 8.573 27.659 16 27.652z" data-original="#ffcdcc" class=""></path><path fill="#ffc5c5" d="M16 27.652c-7.428.007-14.855-4.222-12.159-12.703a.771.771 0 0 1 .009-.026c-.638 6.556 5.756 9.825 12.15 9.82 6.394.006 12.788-3.264 12.151-9.82l.009.026c2.695 8.481-4.732 12.71-12.16 12.703z" data-original="#ffc5c5"></path><path fill="#fca2b1" d="M14.264 15.049a3.1 3.1 0 0 1 3.472 0c1.694 1.138 2.377 2.883 1.985 3.942-.377 1.019-1.848 1.668-3.533 1.613a5.892 5.892 0 0 0-.376 0c-1.684.055-3.155-.594-3.533-1.613-.391-1.059.292-2.804 1.985-3.942z" data-original="#fca2b1"></path><ellipse cx="14.672" cy="18.049" fill="#fc839d" rx=".751" ry="1.113" data-original="#fc839d"></ellipse><ellipse cx="17.328" cy="18.049" fill="#fc839d" rx=".751" ry="1.113" data-original="#fc839d"></ellipse><path fill="#ff6c93" d="M15.423 18.049c0 .054-.002.108-.008.16-.052-.539-.365-.953-.743-.953s-.691.414-.743.953a1.664 1.664 0 0 1-.008-.16c0-.615.336-1.113.751-1.113s.751.498.751 1.113zM18.079 18.049c0 .054-.002.108-.008.16-.052-.539-.365-.953-.743-.953s-.691.414-.743.953a1.664 1.664 0 0 1-.008-.16c0-.615.336-1.113.751-1.113s.751.498.751 1.113z" data-original="#ff6c93"></path><path fill="#ffd9d9" d="M21.057 9.201c-.189.857-3.277 1.183-5.057 1.183s-4.868-.326-5.057-1.183c-.186-.845 2.451-2.186 5.057-2.186s5.243 1.341 5.057 2.186z" data-original="#ffd9d9"></path><ellipse cx="8.489" cy="19.146" fill="#ff9999" rx="1.651" ry=".787" data-original="#ff9999"></ellipse><ellipse cx="7.519" cy="18.977" fill="#ffa4a4" rx=".363" ry=".253" transform="rotate(-16.05 7.53 18.977)" data-original="#ffa4a4"></ellipse><g fill="#422112"><path d="M20.318 13.262a.66.66 0 0 1 .314.08 7.127 7.127 0 0 0 2.843.86.661.661 0 0 1-.103 1.317 8.44 8.44 0 0 1-3.369-1.015.66.66 0 0 1 .315-1.242zM11.682 13.262a.66.66 0 0 1 .315 1.241 8.434 8.434 0 0 1-3.369 1.015.66.66 0 1 1-.103-1.317 7.122 7.122 0 0 0 2.843-.86.67.67 0 0 1 .314-.079zM19.904 24.515a.63.63 0 0 1-.266-.059c-2.244-1.046-5.032-1.046-7.276 0a.63.63 0 1 1-.533-1.143c1.269-.592 2.711-.904 4.171-.904s2.902.313 4.171.904a.63.63 0 0 1-.267 1.202z" fill="#422112" data-original="#422112"></path></g><path fill="#6ac3ef" d="M25.386 21.887c1.839-1.614-.648-4.391-1.371-5.128a.262.262 0 0 0-.373 0c-.723.737-3.21 3.514-1.371 5.128.889.78 2.227.78 3.115 0z" data-original="#6ac3ef"></path><path fill="#64bfe2" d="M25.386 21.887a2.367 2.367 0 0 1-3.3-.183c.75.319 1.64.24 2.33-.269 1.684-1.241.29-3.599-.56-4.754a.26.26 0 0 1 .16.077c.722.738 3.208 3.515 1.37 5.129z" data-original="#64bfe2"></path><ellipse cx="22.637" cy="20.296" fill="#7fd5f7" rx=".844" ry=".545" transform="rotate(-82.65 22.647 20.29)" data-original="#7fd5f7"></ellipse></g></svg>