<svg xmlns="http://www.w3.org/2000/svg" version="1.1" xmlns:xlink="http://www.w3.org/1999/xlink" xmlns:svgjs="http://svgjs.com/svgjs" width="512" height="512" x="0" y="0" viewBox="0 0 32 32" style="enable-background:new 0 0 512 512" xml:space="preserve" class=""><g><path fill="#a55e55" d="m28.217 12.914.933-.408a.097.097 0 0 0 0-.178l-.933-.408a.101.101 0 0 1-.05-.05l-.408-.933a.097.097 0 0 0-.178 0l-.408.933a.101.101 0 0 1-.05.05l-.933.408a.097.097 0 0 0 0 .178l.933.408c.022.01.04.028.05.05l.408.933a.097.097 0 0 0 .178 0l.408-.933a.09.09 0 0 1 .05-.05z" data-original="#a55e55" class=""></path><circle cx="23.71" cy="8.21" r=".29" fill="#934d48" data-original="#934d48"></circle><path fill="#a55e55" d="m7.188 6.949.569-.249c.047-.021.047-.088 0-.108l-.569-.249a.055.055 0 0 1-.03-.03l-.249-.569c-.021-.047-.088-.047-.108 0l-.249.569a.055.055 0 0 1-.03.03l-.569.249c-.047.021-.047.088 0 .108l.569.249a.055.055 0 0 1 .03.03l.249.569c.021.047.088.047.108 0l.249-.568a.06.06 0 0 1 .03-.031z" data-original="#a55e55" class=""></path><circle cx="4.595" cy="10.879" r=".743" fill="#934d48" data-original="#934d48"></circle><path fill="#a55e55" d="M19.474 9.789h-3.02a2.621 2.621 0 0 1-2.616-2.464.732.732 0 0 0-.969-.639c-3.879 1.323-3.405 5.996-3.405 5.996a2.893 2.893 0 0 0 2.893 2.893h7.283a2.894 2.894 0 0 0 2.878-3.191c-.152-1.507-1.531-2.595-3.044-2.595z" data-original="#a55e55" class=""></path><path fill="#934d48" d="M22.52 12.38a2.895 2.895 0 0 1-2.88 3.19h-2c1.7 0 3.05-1.46 2.88-3.19-.15-1.5-1.53-2.59-3.05-2.59h2c1.52 0 2.9 1.09 3.05 2.59z" data-original="#934d48"></path><path fill="#a55e55" d="M23.122 21.254H8.878a3.54 3.54 0 0 1 0-7.08h14.243a3.54 3.54 0 0 1 .001 7.08z" data-original="#a55e55" class=""></path><path fill="#934d48" d="M26.66 17.71c0 .98-.4 1.87-1.04 2.51s-1.52 1.03-2.5 1.03h-2.29a3.53 3.53 0 0 0 3.54-3.54c0-1.95-1.59-3.54-3.54-3.54h2.29a3.54 3.54 0 0 1 3.54 3.54z" data-original="#934d48"></path><g fill="#c1827e"><path d="M12.865 8.29a.374.374 0 0 0-.521-.1c-.575.39-1.02.941-1.323 1.638a.374.374 0 1 0 .687.298c.246-.564.601-1.007 1.056-1.315a.374.374 0 0 0 .101-.521zM11.048 10.967a.37.37 0 0 0-.421.322c-.03.22-.045.424-.053.6a.375.375 0 0 0 .358.391h.017a.375.375 0 0 0 .374-.358 6.16 6.16 0 0 1 .047-.534.375.375 0 0 0-.322-.421zM8.878 15.299c-.907 0-1.73.502-2.147 1.311a.375.375 0 0 0 .665.344 1.664 1.664 0 0 1 1.481-.905.375.375 0 0 0 .001-.75z" fill="#c1827e" data-original="#c1827e"></path></g><path fill="#a55e55" d="M26.781 26.292H5.219a3.22 3.22 0 0 1 0-6.438h21.563a3.219 3.219 0 1 1-.001 6.438z" data-original="#a55e55" class=""></path><path fill="#934d48" d="M30 23.07c0 .89-.36 1.69-.94 2.28-.58.58-1.39.94-2.28.94h-4.04c.89 0 1.7-.36 2.28-.94a3.224 3.224 0 0 0-2.28-5.5h4.04c1.78 0 3.22 1.45 3.22 3.22z" data-original="#934d48"></path></g></svg>