<svg xmlns="http://www.w3.org/2000/svg" version="1.1" xmlns:xlink="http://www.w3.org/1999/xlink" xmlns:svgjs="http://svgjs.com/svgjs" width="512" height="512" x="0" y="0" viewBox="0 0 32 32" style="enable-background:new 0 0 512 512" xml:space="preserve" class=""><g><path fill="#ffd9d9" d="M7.353 5.204A9.197 9.197 0 0 0 2 4.468c.918.855 1.28 2.146 1.469 3.385.189 1.24.251 2.521.732 3.679s1.517 2.2 2.771 2.227l4.381-4.922a9.195 9.195 0 0 0-4-3.633z" data-original="#ffd9d9" class=""></path><path fill="#ffc5c5" d="m9.9 10.469-2.928 3.29c-1.254-.027-2.289-1.069-2.771-2.227-.481-1.158-.543-2.439-.732-3.679S2.918 5.323 2 4.468c0 0 6.487 1.37 7.9 6.001z" data-original="#ffc5c5"></path><path fill="#ffbdbd" d="m9.9 10.469-2.928 3.29-.067-.002c.259-1.263.556-3.755-.758-5.68-1.066-1.561-3.471-3.16-4.146-3.609L2 4.467c0 .001 6.486 1.371 7.9 6.002z" data-original="#ffbdbd"></path><path fill="#ffd9d9" d="M24.647 5.204A9.197 9.197 0 0 1 30 4.468c-.918.855-1.28 2.146-1.469 3.385-.189 1.24-.251 2.521-.732 3.679s-1.517 2.2-2.771 2.227l-4.381-4.922a9.195 9.195 0 0 1 4-3.633z" data-original="#ffd9d9" class=""></path><path fill="#ffc5c5" d="m22.1 10.469 2.928 3.29c1.254-.027 2.289-1.069 2.771-2.227.481-1.158.543-2.439.733-3.679.188-1.24.55-2.53 1.468-3.385 0 0-6.487 1.37-7.9 6.001z" data-original="#ffc5c5"></path><path fill="#ffbdbd" d="m22.1 10.469 2.928 3.29.067-.002c-.259-1.263-.556-3.755.758-5.68 1.066-1.561 3.471-3.16 4.146-3.609L30 4.467c0 .001-6.486 1.371-7.9 6.002z" data-original="#ffbdbd"></path><path fill="#ffcdcc" d="M16 27.652c7.427.006 14.855-4.222 12.159-12.703-1.871-5.887-7.013-8.9-12.159-8.923-5.146.023-10.288 3.036-12.159 8.924C1.145 23.43 8.573 27.659 16 27.652z" data-original="#ffcdcc" class=""></path><path fill="#ffc5c5" d="M16 27.652c-7.428.007-14.855-4.222-12.159-12.703a.771.771 0 0 1 .009-.026c-.638 6.556 5.756 9.825 12.15 9.82 6.394.006 12.788-3.264 12.151-9.82l.009.026c2.695 8.481-4.732 12.71-12.16 12.703z" data-original="#ffc5c5"></path><path fill="#fca2b1" d="M14.264 15.049a3.1 3.1 0 0 1 3.472 0c1.694 1.138 2.377 2.883 1.985 3.942-.377 1.019-1.848 1.668-3.533 1.613a5.892 5.892 0 0 0-.376 0c-1.684.055-3.155-.594-3.533-1.613-.391-1.059.292-2.804 1.985-3.942z" data-original="#fca2b1"></path><ellipse cx="14.672" cy="18.049" fill="#fc839d" rx=".751" ry="1.113" data-original="#fc839d"></ellipse><ellipse cx="17.328" cy="18.049" fill="#fc839d" rx=".751" ry="1.113" data-original="#fc839d"></ellipse><path fill="#ff6c93" d="M15.423 18.049c0 .054-.002.108-.008.16-.052-.539-.365-.953-.743-.953s-.691.414-.743.953a1.664 1.664 0 0 1-.008-.16c0-.615.336-1.113.751-1.113s.751.498.751 1.113zM18.079 18.049c0 .054-.002.108-.008.16-.052-.539-.365-.953-.743-.953s-.691.414-.743.953a1.664 1.664 0 0 1-.008-.16c0-.615.336-1.113.751-1.113s.751.498.751 1.113z" data-original="#ff6c93"></path><path fill="#ffd9d9" d="M21.057 9.201c-.189.857-3.277 1.183-5.057 1.183s-4.868-.326-5.057-1.183c-.186-.845 2.451-2.186 5.057-2.186s5.243 1.341 5.057 2.186z" data-original="#ffd9d9" class=""></path><path fill="#422112" d="M16 26.763a1.855 1.855 0 0 1-1.855-1.855v-1.237a1.855 1.855 0 1 1 3.71 0v1.237A1.856 1.856 0 0 1 16 26.763z" data-original="#422112"></path><path fill="#fe6941" d="M17.841 25.136a1.855 1.855 0 0 1-3.682 0c.483-.366 1.13-.59 1.841-.59.711-.001 1.358.223 1.841.59z" data-original="#fe6941"></path><path fill="#f95332" d="M17.841 25.136a1.855 1.855 0 0 1-3.682 0 2.72 2.72 0 0 1 .353-.226 1.558 1.558 0 0 0 2.976 0c.125.067.243.142.353.226z" data-original="#f95332"></path><path fill="#6ac3ef" d="m10.458 23.871-.001.062.001.065c.008.438.102.62.266.938.22.428.522 1.014.522 2.059v.057a14.908 14.908 0 0 1-2.488-.893 6.743 6.743 0 0 0-.085-.167c-.22-.428-.522-1.014-.522-2.059a4.546 4.546 0 0 1 .113-1.026c.108-.45.274-.771.409-1.033.172-.333.266-.517.266-1.003s-.094-.67-.266-1.003c-.22-.428-.522-1.014-.522-2.059s.302-1.632.522-2.06c.172-.333.266-.517.266-1.003 0-.199-.016-.347-.046-.476a7.116 7.116 0 0 1 2.251-.499c.062.274.102.594.102.975 0 1.045-.302 1.631-.522 2.059-.172.334-.266.517-.266 1.003s.095.67.266 1.003c.22.428.522 1.014.522 2.059s-.302 1.631-.522 2.059c-.165.319-.258.501-.266.942zM23.776 23.096c.045.242.073.518.073.836 0 1.045-.302 1.631-.522 2.059l-.085.167c-.781.364-1.617.662-2.488.893v-.057c0-1.045.302-1.631.522-2.059.164-.318.257-.5.266-.938l.001-.065-.001-.062c-.008-.44-.102-.622-.266-.941-.22-.428-.522-1.014-.522-2.059s.302-1.631.522-2.059c.172-.333.266-.517.266-1.003s-.095-.67-.266-1.003c-.22-.428-.522-1.014-.522-2.059 0-.381.04-.702.102-.975a7.104 7.104 0 0 1 2.251.499 2.013 2.013 0 0 0-.046.476c0 .486.094.67.266 1.003.22.428.522 1.014.522 2.06 0 1.045-.302 1.631-.522 2.059-.172.333-.266.517-.266 1.003s.094.67.266 1.003c.135.262.3.584.409 1.033.015.061.028.124.04.189z" data-original="#6ac3ef"></path><path fill="#64bfe2" d="M11.246 26.995v.057a14.908 14.908 0 0 1-2.488-.893 6.743 6.743 0 0 0-.085-.167c-.22-.428-.522-1.014-.522-2.059a4.546 4.546 0 0 1 .113-1.026c.682.381 1.419.702 2.194.964l-.001.062.001.065c.008.438.102.62.266.938.22.428.522 1.014.522 2.059z" data-original="#64bfe2"></path><path fill="#6ac3ef" d="M10.723 18.811c.22.428.522 1.014.522 2.059s-.302 1.631-.522 2.059c-.164.319-.258.501-.266.941a13.105 13.105 0 0 1-2.194-.964c.108-.45.274-.771.409-1.033.172-.333.266-.517.266-1.003s-.094-.67-.266-1.003c-.22-.428-.522-1.014-.522-2.059s.302-1.632.522-2.06c.172-.333.266-.517.266-1.003 0-.199-.016-.347-.046-.476a7.116 7.116 0 0 1 2.251-.499c.062.274.102.594.102.975 0 1.045-.302 1.631-.522 2.059-.172.334-.266.517-.266 1.003 0 .487.095.67.266 1.004z" data-original="#6ac3ef"></path><path fill="#64bfe2" d="M23.85 23.933c0 1.045-.302 1.631-.522 2.059l-.085.167c-.781.364-1.617.662-2.488.893v-.057c0-1.045.302-1.631.522-2.059.164-.318.257-.5.266-.938l.001-.065-.001-.062a13.105 13.105 0 0 0 2.194-.964 4.538 4.538 0 0 1 .113 1.026z" data-original="#64bfe2"></path><path fill="#6ac3ef" d="M23.327 21.873c.135.262.3.584.409 1.033-.682.381-1.419.702-2.194.964-.008-.44-.102-.622-.266-.941-.22-.428-.522-1.014-.522-2.059s.302-1.631.522-2.059c.172-.333.266-.517.266-1.003s-.095-.67-.266-1.003c-.22-.428-.522-1.014-.522-2.059 0-.381.04-.702.102-.975a7.104 7.104 0 0 1 2.251.499 2.013 2.013 0 0 0-.046.476c0 .486.094.67.266 1.003.22.428.522 1.014.522 2.06 0 1.045-.302 1.631-.522 2.059-.172.333-.266.517-.266 1.003 0 .485.095.669.266 1.002z" data-original="#6ac3ef"></path><g fill="#422112"><path d="M8.148 15.511a.66.66 0 0 1-.354-1.219 7.799 7.799 0 0 1 4.254-1.192.66.66 0 1 1-.023 1.321 6.451 6.451 0 0 0-3.525.988.665.665 0 0 1-.352.102zM23.852 15.511a.656.656 0 0 1-.352-.102 6.466 6.466 0 0 0-3.525-.988h-.012a.66.66 0 0 1-.011-1.321 7.793 7.793 0 0 1 4.254 1.192.66.66 0 0 1-.354 1.219z" fill="#422112" data-original="#422112"></path></g></g></svg>