<svg xmlns="http://www.w3.org/2000/svg" version="1.1" xmlns:xlink="http://www.w3.org/1999/xlink" xmlns:svgjs="http://svgjs.com/svgjs" width="512" height="512" x="0" y="0" viewBox="0 0 512 512" style="enable-background:new 0 0 512 512" xml:space="preserve" class=""><g><circle cx="72" cy="256" r="24" fill="#f69038" data-original="#f69038"></circle><path fill="#90e3f5" d="m35.355 357 27.356-8.012-8.013 27.355 8.013 27.355-27.356-8.012L8 403.698l8.012-27.355L8 348.988z" data-original="#90e3f5" class=""></path><path fill="#7a3909" d="M24 480h152v24H24z" data-original="#7a3909"></path><path fill="#90e3f5" d="M448 504H254a30 30 0 0 1-30-30V298a90 90 0 0 1 90-90h44a90 90 0 0 1 90 90z" data-original="#90e3f5" class=""></path><path fill="#90e3f5" d="M319.714 208H314a90 90 0 0 0-90 90v176a30 30 0 0 0 30 30h130V298c0-49.706-28.782-90-64.286-90z" data-original="#90e3f5" class=""></path><path fill="#0f8ca8" d="M358 208h-38.286c35.5 0 64.286 40.294 64.286 90v206h64V298a90 90 0 0 0-90-90z" data-original="#0f8ca8" class=""></path><ellipse cx="448" cy="456" fill="#f69038" rx="40" ry="48" data-original="#f69038"></ellipse><path fill="#0f8ca8" d="M256 368h96v58a30 30 0 0 1-30 30h-36a30 30 0 0 1-30-30v-58z" data-original="#0f8ca8" class=""></path><path fill="#f69038" d="M296 209.801V176h64v32" data-original="#f69038"></path><circle cx="304" cy="296" r="40" fill="#0f8ca8" data-original="#0f8ca8" class=""></circle><path fill="#f69038" d="m120 440 64-312h32l-64 312z" data-original="#f69038"></path><path fill="#a95a18" d="M184 88v8h32v-6.476a50.463 50.463 0 0 1 7.006-25.772L190.81 55.7A79.691 79.691 0 0 0 184 88z" data-original="#a95a18"></path><g fill="#7a3909"><path d="m190.81 55.7 32.2 8.049a49.032 49.032 0 0 1 16.141-16.6L216 24a80.272 80.272 0 0 0-25.19 31.7zM184 96h32v32h-32zM312 104h32v32h-32z" fill="#7a3909" data-original="#7a3909"></path></g><path fill="#a95a18" d="M312 136h32v40h-32z" data-original="#a95a18"></path><path fill="#7a3909" d="m320.569 31.431-22.853 22.853A49.739 49.739 0 0 1 308.9 72h33.5a79.837 79.837 0 0 0-21.831-40.569z" data-original="#7a3909"></path><path fill="#a95a18" d="M308.9 72a50.787 50.787 0 0 1 3.1 17.524V104h32V88a80.355 80.355 0 0 0-1.6-16zM216 24l23.148 23.148A46.791 46.791 0 0 1 256 40.7V8.4A79.58 79.58 0 0 0 216 24zM296.912 15.088l-25.5 25.5a47.348 47.348 0 0 1 26.305 13.695l22.853-22.852a80.158 80.158 0 0 0-23.658-16.343z" data-original="#a95a18"></path><path fill="#7a3909" d="M264 8c-2.7 0-5.368.138-8 .4v32.3a46.825 46.825 0 0 1 8-.7 46.9 46.9 0 0 1 7.411.589l25.5-25.5A79.673 79.673 0 0 0 264 8z" data-original="#7a3909"></path><path fill="#fcfbfa" d="M280 392h16v24h-16z" data-original="#fcfbfa"></path><path fill="#7a3909" d="M96 312h16v16H96z" data-original="#7a3909"></path><path fill="#90e3f5" d="M184 424h16v16h-16z" data-original="#90e3f5" class=""></path><path fill="#7a3909" d="M56 432h16v16H56z" data-original="#7a3909"></path><path fill="#90e3f5" d="M0 293h16v16H0z" data-original="#90e3f5" class=""></path><path fill="#a95a18" d="m88 480 32-40h32v40z" data-original="#a95a18"></path><path fill="#fafcfc" d="M277 474V298a90.035 90.035 0 0 1 62.417-85.688 47.725 47.725 0 0 0-19.7-4.312H314a90 90 0 0 0-90 90v176a30 30 0 0 0 30 30h53a30 30 0 0 1-30-30zM184 128l-64 312h16l64-312z" opacity=".3" data-original="#fafcfc" class=""></path><path fill="#a95a18" d="M460 410.2c-16.228 6.117-28 24.307-28 45.8s11.772 39.682 28 45.8c16.228-6.117 28-24.307 28-45.8s-11.772-39.682-28-45.8z" data-original="#a95a18"></path></g></svg>