<svg xmlns="http://www.w3.org/2000/svg" version="1.1" xmlns:xlink="http://www.w3.org/1999/xlink" xmlns:svgjs="http://svgjs.com/svgjs" width="512" height="512" x="0" y="0" viewBox="0 0 59 59" style="enable-background:new 0 0 512 512" xml:space="preserve" class=""><g><g fill="none" fill-rule="nonzero"><path fill="#84b5cb" d="M35.65 56.5c-10.072 4.997-22.264 2.327-29.326-6.421C-.74 41.33-.778 28.85 6.23 20.058l5.4 4.5L37.26 46.75zM39.57 26.27l-25.176-4.5-3.417-6.23A23.807 23.807 0 0 1 24.945 11H25a23.877 23.877 0 0 1 16.55 6.63L43 22v4z" data-original="#84b5cb" class=""></path><path fill="#ecf0f1" d="M13.7 22.377A16.637 16.637 0 0 1 25 18a16.974 16.974 0 0 1 14.57 8.27c-1 .314-1.874.942-2.49 1.79a4.805 4.805 0 0 0-.01 5.34 12.317 12.317 0 0 1 1.77 4.6c.106.661.16 1.33.16 2a16.554 16.554 0 0 1-1.43 6c-.1.25-.2.5-.3.74l-.01.01A16.971 16.971 0 1 1 12.816 23.2" data-original="#ecf0f1" class=""></path><path fill="#e64c3c" d="m50 17-3 1-3-1 1.29-4.29a.987.987 0 0 1 .95-.71h1.52a.987.987 0 0 1 .95.71z" data-original="#e64c3c"></path><path fill="#802f34" d="M43 19.259h8v9.481h-8z" data-original="#802f34"></path><path fill="#4fba6f" d="M58.92 53c-.3-2.14-1.5-4.52-2.49-7A16.554 16.554 0 0 1 55 40c0-.67.054-1.339.16-2a12.317 12.317 0 0 1 1.77-4.6 4.805 4.805 0 0 0-.01-5.34A5.179 5.179 0 0 0 53 26H41a5 5 0 0 0-1.43.27c-1 .314-1.874.942-2.49 1.79a4.805 4.805 0 0 0-.01 5.34 12.317 12.317 0 0 1 1.77 4.6c.106.661.16 1.33.16 2a16.554 16.554 0 0 1-1.43 6c-.1.25-.2.5-.3.74l-.01.01A28.194 28.194 0 0 0 35.08 53c-.051.33-.078.665-.08 1-.014.877.211 1.74.65 2.5.423.71 1.01 1.31 1.71 1.75A4.933 4.933 0 0 0 40 59h14a4.933 4.933 0 0 0 2.64-.75A4.88 4.88 0 0 0 59 54a6.849 6.849 0 0 0-.08-1z" data-original="#4fba6f"></path><path fill="#24ae5f" d="M59 54a4.88 4.88 0 0 1-2.36 4.25A4.933 4.933 0 0 1 54 59H40a4.933 4.933 0 0 1-2.64-.75 5.215 5.215 0 0 1-1.71-1.75A4.843 4.843 0 0 1 35 54c.002-.335.029-.67.08-1h23.84c.051.33.078.665.08 1z" data-original="#24ae5f"></path><path fill="#f0c419" d="M43 42a10.935 10.935 0 0 0 .72 4h-6.15A16.554 16.554 0 0 0 39 40c0-.67-.054-1.339-.16-2h4.88a10.935 10.935 0 0 0-.72 4zM50.28 46c.96-2.58.96-5.42 0-8h4.88c-.106.661-.16 1.33-.16 2a16.554 16.554 0 0 0 1.43 6z" data-original="#f0c419"></path><path fill="#c03a2b" d="M53 19v1a2.006 2.006 0 0 1-2 2h-8a2.006 2.006 0 0 1-2-2v-1a1.944 1.944 0 0 1 .55-1.37A1.97 1.97 0 0 1 43 17h8a2.006 2.006 0 0 1 2 2z" data-original="#c03a2b"></path><path fill="#f3d55b" d="M51 42a10.935 10.935 0 0 1-.72 4c-.72 1.82-1.92 3-3.28 3s-2.56-1.18-3.28-3c-.96-2.58-.96-5.42 0-8 .72-1.82 1.92-3 3.28-3s2.56 1.18 3.28 3c.488 1.277.732 2.633.72 4z" data-original="#f3d55b"></path><g fill="#ff5364"><path d="M5 4a1 1 0 0 1-1-1V1a1 1 0 1 1 2 0v2a1 1 0 0 1-1 1zM5 10a1 1 0 0 1-1-1V7a1 1 0 1 1 2 0v2a1 1 0 0 1-1 1zM9 6H7a1 1 0 1 1 0-2h2a1 1 0 1 1 0 2zM3 6H1a1 1 0 1 1 0-2h2a1 1 0 1 1 0 2z" fill="#ff5364" data-original="#ff5364"></path></g><path fill="#f3d55b" d="M28.694 8.459a7.047 7.047 0 0 0-3.235 3.235.5.5 0 0 1-.918 0 7.018 7.018 0 0 0-3.235-3.235.5.5 0 0 1 0-.918 7.018 7.018 0 0 0 3.235-3.235.5.5 0 0 1 .918 0 7.052 7.052 0 0 0 3.235 3.235.5.5 0 0 1 0 .918zM16.541 21.689a10.567 10.567 0 0 0-4.852 4.852.747.747 0 0 1-1.378 0 10.523 10.523 0 0 0-4.852-4.852.747.747 0 0 1 0-1.378 10.514 10.514 0 0 0 4.852-4.852.747.747 0 0 1 1.378 0 10.567 10.567 0 0 0 4.852 4.852.747.747 0 0 1 0 1.378z" data-original="#f3d55b"></path></g></g></svg>